Coordinates
version=1
nRows=10
nColumns=40
inDegrees=yes

Units are S.I. units (second, meters, Newtons, ...)
If the header above contains a line with 'inDegrees', this indicates whether rotational values are in degrees (yes) or radians (no).

endheader
time	pelvis_tilt	pelvis_list	pelvis_rotation	pelvis_tx	pelvis_ty	pelvis_tz	hip_flexion_r	hip_adduction_r	hip_rotation_r	knee_angle_r	knee_angle_r_beta	ankle_angle_r	subtalar_angle_r	mtp_angle_r	hip_flexion_l	hip_adduction_l	hip_rotation_l	knee_angle_l	knee_angle_l_beta	ankle_angle_l	subtalar_angle_l	mtp_angle_l	lumbar_extension	lumbar_bending	lumbar_rotation	arm_flex_r	arm_add_r	arm_rot_r	elbow_flex_r	pro_sup_r	wrist_flex_r	wrist_dev_r	arm_flex_l	arm_add_l	arm_rot_l	elbow_flex_l	pro_sup_l	wrist_flex_l	wrist_dev_l
      0.63000000	     -3.58296732	      9.62148747	    -86.13875550	      0.11360736	      0.99618627	     -0.48423670	     17.63222288	      6.52938329	     -8.33296875	      9.89096523	      0.17262991	      0.39890768	      0.00000000	      0.00000000	     18.66857207	     -5.01775022	      1.29806870	     56.60695149	      0.98797768	     -3.59768046	      0.00000000	      0.00000000	      1.23643737	      3.25902185	     -4.47868881	      0.00000000	      0.00000000	      0.00000000	      0.00000000	      0.00000000	      0.00000000	      0.00000000	      0.00000000	      0.00000000	      0.00000000	      0.00000000	      0.00000000	      0.00000000	      0.00000000
      0.64000000	     -3.36284438	      9.59962590	    -86.25953130	      0.11273895	      0.99706950	     -0.47502218	     16.82094826	      6.42346933	     -8.47160491	      9.58774160	      0.16733766	      0.68335641	      0.00000000	      0.00000000	     19.84183928	     -4.88148613	      0.93522262	     56.49318746	      0.98599213	     -3.18082478	      0.00000000	      0.00000000	      1.27952673	      2.95077512	     -4.37513114	      0.00000000	      0.00000000	      0.00000000	      0.00000000	      0.00000000	      0.00000000	      0.00000000	      0.00000000	      0.00000000	      0.00000000	      0.00000000	      0.00000000	      0.00000000	      0.00000000
      0.65000000	     -3.16803831	      9.43942292	    -86.52123330	      0.11189959	      0.99807469	     -0.46559409	     15.70169451	      6.45524042	     -7.72431122	      9.01535592	      0.15734764	      1.04269316	      0.00000000	      0.00000000	     20.73246461	     -4.73755905	      0.58772093	     56.10446412	      0.97920762	     -1.87439567	      0.00000000	      0.00000000	      1.15832655	      2.75646215	     -4.01785644	      0.00000000	      0.00000000	      0.00000000	      0.00000000	      0.00000000	      0.00000000	      0.00000000	      0.00000000	      0.00000000	      0.00000000	      0.00000000	      0.00000000	      0.00000000	      0.00000000
      0.66000000	     -3.00875189	      9.45952035	    -86.65042120	      0.11117170	      0.99868528	     -0.45646442	     14.92605193	      6.39811283	     -7.82265377	      8.66741767	      0.15127498	      1.33454818	      0.00000000	      0.00000000	     21.85971557	     -4.63185234	      0.26197540	     55.60035364	      0.97040924	     -1.40343684	      0.00000000	      0.00000000	      1.22956018	      2.55809097	     -3.90060696	      0.00000000	      0.00000000	      0.00000000	      0.00000000	      0.00000000	      0.00000000	      0.00000000	      0.00000000	      0.00000000	      0.00000000	      0.00000000	      0.00000000	      0.00000000	      0.00000000
      0.67000000	     -2.81285030	      9.25098057	    -86.92812543	      0.11032707	      0.99948985	     -0.44716882	     13.76928842	      6.41619989	     -7.09963051	      8.09338571	      0.14125623	      1.64185283	      0.00000000	      0.00000000	     22.62387141	     -4.49836929	     -0.10485891	     54.87912684	      0.95782145	     -0.28958253	      0.00000000	      0.00000000	      1.03056670	      2.34469136	     -3.57941169	      0.00000000	      0.00000000	      0.00000000	      0.00000000	      0.00000000	      0.00000000	      0.00000000	      0.00000000	      0.00000000	      0.00000000	      0.00000000	      0.00000000	      0.00000000	      0.00000000
      0.68000000	     -2.64083467	      9.15322631	    -87.12218015	      0.10964547	      0.99998612	     -0.43800297	     12.78493626	      6.38235004	     -6.84850078	      7.58903324	      0.13245362	      1.94695379	      0.00000000	     -0.00000000	     23.50606242	     -4.35917749	     -0.40465779	     54.03074245	      0.94301435	      0.38737646	     -0.00000000	      0.00000000	      0.95893285	      2.15559542	     -3.36487450	     -0.00000000	      0.00000000	     -0.00000000	      0.00000000	      0.00000000	      0.00000000	      0.00000000	     -0.00000000	      0.00000000	     -0.00000000	      0.00000000	      0.00000000	      0.00000000	     -0.00000000
      0.69000000	     -2.62017737	      9.25040630	    -87.23132132	      0.10903450	      1.00005901	     -0.42912201	     12.17914186	      6.43585861	     -7.03227660	      7.36018164	      0.12845940	      2.18799668	     -0.00000000	      0.00000000	     24.60214008	     -4.33351933	     -0.57696534	     53.03044505	      0.92555587	      0.72593004	      0.00000000	      0.00000000	      1.08730183	      2.13082692	     -3.31462377	     -0.00000000	      0.00000000	     -0.00000000	      0.00000000	      0.00000000	     -0.00000000	     -0.00000000	      0.00000000	     -0.00000000	     -0.00000000	      0.00000000	      0.00000000	      0.00000000	      0.00000000
      0.70000000	     -2.36458379	      8.94570426	    -87.52717241	      0.10834663	      1.00065227	     -0.41978797	     10.82636448	      6.37106556	     -6.26034889	      6.59667335	      0.11513367	      2.54005930	      0.00000000	     -0.00000000	     25.08587113	     -4.11694294	     -0.91637915	     51.78299674	      0.90378379	      1.63078964	      0.00000000	     -0.00000000	      0.77330878	      1.84793476	     -2.92724562	     -0.00000000	      0.00000000	      0.00000000	      0.00000000	      0.00000000	      0.00000000	      0.00000000	     -0.00000000	      0.00000000	     -0.00000000	      0.00000000	      0.00000000	     -0.00000000	      0.00000000
      0.71000000	     -2.25790689	      8.98039456	    -87.69105972	      0.10782745	      1.00057658	     -0.41082041	     10.03473241	      6.36506019	     -6.02461789	      6.15167575	      0.10736700	      2.87321022	      0.00000000	      0.00000000	     25.97675050	     -3.97686224	     -1.06152973	     50.45648223	      0.88063174	      2.17263611	      0.00000000	      0.00000000	      0.81597366	      1.72091668	     -2.78426557	      0.00000000	      0.00000000	      0.00000000	      0.00000000	      0.00000000	      0.00000000	      0.00000000	      0.00000000	      0.00000000	      0.00000000	      0.00000000	      0.00000000	      0.00000000	      0.00000000
      0.72000000	     -2.14623517	      8.82217670	    -87.90997747	      0.10727280	      1.00065218	     -0.40170803	      8.99716893	      6.37009212	     -5.71705099	      5.64883934	      0.09859085	      3.16848057	      0.00000000	      0.00000000	     26.55151505	     -3.86589639	     -1.26065212	     48.91379452	      0.85370676	      2.57349260	      0.00000000	      0.00000000	      0.64260041	      1.60472544	     -2.54874001	      0.00000000	      0.00000000	      0.00000000	      0.00000000	      0.00000000	      0.00000000	      0.00000000	      0.00000000	      0.00000000	      0.00000000	      0.00000000	      0.00000000	      0.00000000	      0.00000000
